<svg xmlns="http://www.w3.org/2000/svg" width="1200" height="630" viewBox="0 0 1200 630">
  <defs>
    <linearGradient id="bg" x1="0%" y1="0%" x2="100%" y2="100%">
      <stop offset="0%" style="stop-color:#0d4c85"/>
      <stop offset="100%" style="stop-color:#083a66"/>
    </linearGradient>
  </defs>
  <rect width="1200" height="630" fill="url(#bg)"/>
  <g transform="translate(100, 200)">
    <rect x="0" y="0" width="80" height="80" rx="16" fill="#fff" opacity="0.9"/>
    <path d="M12 40 Q24 40 28 28 Q32 16 36 28 Q40 40 44 40 Q48 40 52 52 Q56 64 60 52 Q64 40 68 40" 
          fill="none" stroke="#0d4c85" stroke-width="4" stroke-linecap="round" transform="translate(4,4)"/>
    <circle cx="40" cy="40" r="3" fill="#0d4c85"/>
  </g>
  <text x="200" y="250" font-family="system-ui, -apple-system, sans-serif" font-size="56" font-weight="700" fill="#fff">JJ&amp;A Ultrasound Instruments</text>
  <text x="100" y="340" font-family="system-ui, -apple-system, sans-serif" font-size="32" fill="#fff" opacity="0.9">Precision Ultrasound Equipment</text>
  <text x="100" y="390" font-family="system-ui, -apple-system, sans-serif" font-size="24" fill="#fff" opacity="0.7">Doppler Phantoms • HIFU RF Generators • Calibration Services</text>
  <g transform="translate(100, 480)">
    <rect x="0" y="0" width="80" height="32" rx="4" fill="#fff" opacity="0.2"/>
    <text x="40" y="22" font-family="system-ui, sans-serif" font-size="14" fill="#fff" text-anchor="middle">ISO 13485</text>
    <rect x="100" y="0" width="80" height="32" rx="4" fill="#fff" opacity="0.2"/>
    <text x="140" y="22" font-family="system-ui, sans-serif" font-size="14" fill="#fff" text-anchor="middle">CE Marked</text>
    <rect x="200" y="0" width="100" height="32" rx="4" fill="#fff" opacity="0.2"/>
    <text x="250" y="22" font-family="system-ui, sans-serif" font-size="14" fill="#fff" text-anchor="middle">FDA Registered</text>
  </g>
</svg>
